<svg width="115" height="29" viewBox="0 0 115 29" fill="none" xmlns="http://www.w3.org/2000/svg">
<path d="M43.6496 6.49716C43.2696 6.0826 42.8032 5.73713 42.2159 5.47803C41.6286 5.21894 40.9204 5.09802 40.0913 5.09802H36.3085V23.1832H39.8322C41.525 23.1832 42.7514 22.7686 43.5287 21.9049C44.306 21.0585 44.686 19.8321 44.686 18.243V17.2411C44.686 16.2911 44.5478 15.5311 44.2542 14.9611C43.9605 14.3911 43.5114 13.9592 42.9069 13.6828C43.2005 13.5101 43.4423 13.3374 43.6669 13.1301C43.8914 12.9401 44.0815 12.7155 44.2196 12.4564C44.3751 12.1973 44.4787 11.9037 44.5651 11.5755C44.6342 11.23 44.686 10.8155 44.686 10.3318V9.67544C44.686 9.08815 44.5996 8.51813 44.4442 7.96539C44.2887 7.39537 44.0296 6.91172 43.6496 6.49716ZM42.1987 18.7612C42.1641 19.1412 42.0777 19.4521 41.9223 19.7285C41.7668 20.0049 41.5423 20.2121 41.2486 20.3676C40.955 20.5231 40.5404 20.5922 40.0222 20.5922H38.8995V14.8056H40.0395C40.5059 14.8056 40.9032 14.8574 41.1795 14.9783C41.4732 15.0993 41.6977 15.272 41.8532 15.4965C42.0087 15.7211 42.1123 16.0147 42.1641 16.3429C42.2159 16.6711 42.2332 17.0857 42.2332 17.5348C42.2505 17.9839 42.2332 18.3812 42.1987 18.7612ZM41.8014 11.8692C41.5077 12.301 40.9204 12.5255 40.0568 12.5255H38.8822V7.53356H39.9531C40.8168 7.53356 41.4214 7.74084 41.7496 8.13812C42.0777 8.55268 42.2505 9.15725 42.2505 9.96909C42.2505 10.7982 42.095 11.4373 41.8014 11.8692Z" fill="#E0E0E0"/>
<path d="M54.2899 6.04787C53.8754 5.68513 53.409 5.40876 52.8908 5.21876C52.3726 5.02875 51.8544 4.94238 51.3362 4.94238C50.818 4.94238 50.2825 5.02875 49.7816 5.21876C49.2634 5.40876 48.797 5.68513 48.3825 6.04787C47.9679 6.41061 47.6397 6.87699 47.3806 7.42974C47.1215 7.98248 47.0006 8.63887 47.0006 9.36434V18.9165C47.0006 19.6592 47.1215 20.3156 47.3806 20.8684C47.6397 21.4211 47.9679 21.8702 48.3825 22.2329C48.797 22.5957 49.2634 22.8721 49.7816 23.0621C50.2998 23.2521 50.818 23.3384 51.3362 23.3384C51.8544 23.3384 52.3899 23.2521 52.8908 23.0621C53.3917 22.8721 53.8754 22.5957 54.2899 22.2329C54.7045 21.8702 55.0327 21.4038 55.2918 20.8684C55.5509 20.3156 55.6718 19.6765 55.6718 18.9165V9.36434C55.6718 8.63887 55.5509 7.99975 55.2918 7.42974C55.0327 6.87699 54.7045 6.41061 54.2899 6.04787ZM53.0808 18.9165C53.0808 19.5383 52.9081 20.0047 52.5626 20.2983C52.2171 20.592 51.8026 20.7474 51.3362 20.7474C50.8698 20.7474 50.4553 20.592 50.1098 20.2983C49.7643 20.0047 49.5916 19.5383 49.5916 18.9165V9.36434C49.5916 8.74251 49.7643 8.27613 50.1098 7.98248C50.4553 7.68884 50.8698 7.53338 51.3362 7.53338C51.8026 7.53338 52.2171 7.68884 52.5626 7.98248C52.9081 8.27613 53.0808 8.74251 53.0808 9.36434V18.9165Z" fill="#E0E0E0"/>
<path d="M66.3985 5.09802H63.6521L61.6656 10.4527L59.7137 5.09802H56.9673L60.3356 13.7001L56.6909 23.1832H59.4201L61.6656 17.0857L63.9284 23.1832H66.6749L62.9266 13.7001L66.3985 5.09802Z" fill="#E0E0E0"/>
<path d="M70.5096 5.09802H67.9186V23.1832H70.5096V5.09802Z" fill="#E0E0E0"/>
<path d="M75.6053 5.09802H73.0143V23.1832H80.7527V20.5922H75.6053V5.09802Z" fill="#E0E0E0"/>
<path d="M14.5787 5.90963C14.6478 5.82327 14.7169 5.75417 14.786 5.66781C15.6497 4.78687 17.1006 4.00957 17.5152 3.80229C17.6016 3.76775 17.6707 3.71593 17.757 3.68138C17.8089 3.64683 17.8607 3.62956 17.9125 3.59501L14.0433 1.45312V5.61599L14.5787 5.90963Z" fill="#E0E0E0"/>
<path d="M23.6472 8.20729C22.6798 8.88095 21.7471 9.05368 21.0734 9.19187L20.8834 9.22642C20.8143 9.24369 20.728 9.26096 20.6416 9.27824L24.3208 11.3165L28.0691 9.22642L24.5972 7.30908C24.3554 7.63727 24.0099 7.94819 23.6472 8.20729Z" fill="#E0E0E0"/>
<path d="M14.0259 5.61599L14.0432 1.45312L0 9.2261L3.7483 11.3162L14.0259 5.61599Z" fill="#E0E0E0"/>
<path d="M15.4078 6.37616C14.1468 7.68893 14.095 9.5199 14.095 9.86536C14.0778 11.99 15.3042 13.3718 15.5805 13.6828C15.5114 11.299 16.2887 10.2626 16.8069 9.81354C17.4806 9.20898 18.517 8.84624 19.4152 8.60441C19.9161 8.46623 20.3652 8.37986 20.6934 8.32804C21.3498 8.18985 22.2135 8.08621 23.1117 7.46438C23.4226 7.2571 23.6299 7.03254 23.7853 6.85981C23.9235 6.70435 24.0099 6.60071 24.0444 6.53162C24.5799 5.75432 24.6145 4.95975 24.6317 4.71792C24.7008 3.09423 23.5608 1.97147 23.3708 1.78147C23.4053 1.98874 23.509 2.9906 22.818 3.85426C22.4726 4.30336 22.0407 4.52792 21.7989 4.63156C22.3171 3.59516 22.248 2.35148 21.6089 1.436C20.8316 0.313236 19.5879 0.157776 19.3979 0.140503C19.5188 0.278689 20.227 1.09053 20.0889 2.23057C20.0025 2.88696 19.6743 3.33606 19.5534 3.50879C19.3461 3.78517 19.1216 3.97517 18.8797 4.13063C18.5861 4.33791 18.2752 4.4761 17.947 4.63156C17.7051 4.75247 16.2715 5.49522 15.4596 6.32434C15.4251 6.34161 15.4251 6.35889 15.4078 6.37616Z" fill="#E0E0E0"/>
<path d="M3.7483 11.3163L0 9.2262V13.3891L14.0432 21.162V17.0164L3.7483 11.3163Z" fill="#E0E0E0"/>
<path d="M14.0433 17.0164V21.162L28.0692 13.3891V9.2262L24.3209 11.3163L14.0433 17.0164Z" fill="#E0E0E0"/>
<path d="M0 16.1873V20.3501L14.0432 28.1404V23.9775L0 16.1873Z" fill="#E0E0E0"/>
<path d="M14.0433 28.1404L28.0692 20.3501V16.1873L14.0433 23.9775V28.1404Z" fill="#E0E0E0"/>
</svg>
