<svg width="141" height="24" viewBox="0 0 141 24" fill="none" xmlns="http://www.w3.org/2000/svg">
<path d="M71.9415 21.8698H68.5311L66.4106 14.3258L64.2998 21.8698H60.8796L66.4106 2.15967L71.9415 21.8698Z" fill="#E0E0E0"/>
<path d="M115.27 21.8698H111.86L109.739 14.3258L107.629 21.8698H104.208L109.739 2.15967L115.27 21.8698Z" fill="#E0E0E0"/>
<path d="M44.7947 7.95417H42.0195V7.31899C42.0351 6.73323 41.8788 6.15572 41.57 5.65775C41.3998 5.42266 41.172 5.23533 40.9084 5.11381C40.6448 4.9923 40.3544 4.94069 40.0651 4.96394C39.7258 4.94381 39.3875 5.01824 39.0879 5.17893C38.8504 5.31548 38.6519 5.51061 38.5114 5.7457C38.3664 5.98865 38.2702 6.2575 38.228 6.53723C38.1669 6.85932 38.1374 7.18661 38.14 7.51443C38.14 7.90531 38.14 8.22779 38.14 8.49163C38.1623 8.73102 38.232 8.96357 38.3452 9.17567C38.4684 9.37922 38.6353 9.55279 38.8338 9.68381C39.1032 9.86201 39.3916 10.0095 39.6938 10.1236L41.8338 10.9737C42.3799 11.1721 42.8911 11.4558 43.3485 11.8141C43.7218 12.1209 44.025 12.5041 44.2377 12.9379C44.4603 13.4066 44.6055 13.9082 44.6677 14.4232C44.7421 15.0556 44.778 15.692 44.7752 16.3288C44.7792 17.0805 44.7039 17.8306 44.5504 18.5665C44.4048 19.2177 44.1289 19.8327 43.7394 20.3744C43.344 20.8861 42.8311 21.295 42.2443 21.5665C41.5234 21.8788 40.7428 22.0289 39.9576 22.0063C39.3272 22.0157 38.7006 21.9063 38.1107 21.6838C37.5482 21.4575 37.0341 21.1259 36.596 20.7066C36.1776 20.2866 35.8456 19.7886 35.6188 19.2408C35.3413 18.6639 35.1913 18.034 35.1791 17.3939V16.3581H37.9739V17.2376C37.9718 17.7348 38.1331 18.2189 38.4332 18.6154C38.6148 18.8361 38.8481 19.0086 39.1122 19.1177C39.3764 19.2267 39.6634 19.269 39.9478 19.2408C40.3247 19.259 40.7003 19.1852 41.0423 19.0258C41.2963 18.9016 41.5073 18.7042 41.6482 18.4591C41.7962 18.1699 41.8859 17.8545 41.912 17.5307C41.912 17.1692 41.912 16.7685 41.912 16.3288C41.912 15.889 41.912 15.3516 41.912 15.0682C41.8882 14.7881 41.8085 14.5156 41.6775 14.2669C41.555 14.0647 41.3836 13.8967 41.1791 13.7783C40.9148 13.6146 40.6369 13.474 40.3485 13.3581L38.3355 12.5372C37.3159 12.2039 36.4538 11.5086 35.912 10.5828C35.4701 9.62556 35.2593 8.57789 35.2964 7.5242C35.2907 6.81901 35.3928 6.11709 35.5993 5.44277C35.7777 4.81876 36.0802 4.23713 36.4886 3.73267C36.9041 3.24161 37.4252 2.85077 38.013 2.58935C38.6758 2.29079 39.3969 2.1439 40.1237 2.15938C40.796 2.14409 41.4634 2.27756 42.0781 2.55026C42.6296 2.77545 43.1311 3.10757 43.5537 3.52746C43.9672 3.92906 44.299 4.4069 44.5309 4.93463C44.7513 5.44355 44.8644 5.99243 44.8631 6.54701L44.7947 7.95417Z" fill="#E0E0E0"/>
<path d="M46.9057 2.32568H49.6028L53.1695 12.7035H53.2184L56.7852 2.32568H59.5116V21.8697H56.6777V9.98692L53.9122 18.3811H52.4757L49.7298 9.98692V21.8697H46.9057V2.32568Z" fill="#E0E0E0"/>
<path d="M73.2901 2.32568H77.7852C81.0816 2.32568 82.7298 4.23774 82.7298 8.06184C82.7585 9.06593 82.5754 10.0648 82.1924 10.9934C81.8069 11.8389 81.1452 12.5281 80.3162 12.9478L83.3357 21.8697H80.4041L77.7852 13.5244H76.1142V21.8697H73.2901V2.32568ZM76.0849 11.0521H77.6777C78.082 11.0692 78.4852 10.9992 78.8601 10.8469C79.1384 10.7232 79.3733 10.5189 79.5344 10.2605C79.703 9.95902 79.8093 9.62672 79.8471 9.28334C79.906 8.85271 79.9321 8.41824 79.9253 7.98366C79.9321 7.54584 79.906 7.10812 79.8471 6.67422C79.8064 6.32729 79.6896 5.99363 79.5051 5.69702C79.3245 5.4308 79.0696 5.22352 78.7722 5.10093C78.3773 4.9613 77.9594 4.89829 77.5409 4.91526H76.1142L76.0849 11.0521Z" fill="#E0E0E0"/>
<path d="M86.8435 4.96412H83.6089V2.32568H92.8826V4.96412H89.648V21.8697H86.8435V4.96412Z" fill="#E0E0E0"/>
<path d="M103.016 17.5116C103.015 18.1049 102.899 18.6923 102.674 19.2413C102.445 19.7792 102.113 20.2672 101.697 20.6777C101.291 21.0906 100.81 21.4222 100.28 21.6549C99.734 21.9032 99.1405 22.0299 98.5406 22.0263C97.9928 22.0257 97.4475 21.9535 96.9185 21.8113C96.3743 21.6671 95.8676 21.4071 95.4331 21.0491C94.976 20.6645 94.609 20.1841 94.3582 19.6419C94.0451 18.9423 93.898 18.1798 93.9283 17.4139V6.6647C93.9318 6.05399 94.0547 5.44984 94.2898 4.8862C94.5116 4.34719 94.8446 3.86104 95.267 3.45949C95.6803 3.042 96.1717 2.70995 96.7133 2.48229C97.301 2.24991 97.9282 2.13376 98.5602 2.14027C99.173 2.13562 99.7806 2.25185 100.348 2.48229C100.889 2.70821 101.377 3.04112 101.786 3.46097C102.194 3.88082 102.513 4.37893 102.723 4.92529C102.94 5.5396 103.04 6.18941 103.016 6.8406V7.92529H100.221V6.99695C100.234 6.48155 100.068 5.97758 99.7524 5.57024C99.6076 5.37414 99.417 5.21642 99.1973 5.11082C98.9776 5.00522 98.7354 4.95495 98.4918 4.96438C98.223 4.92779 97.9494 4.96911 97.7034 5.08344C97.4574 5.19776 97.2495 5.38029 97.1042 5.60933C96.8493 6.11461 96.725 6.67563 96.7426 7.24125V17.238C96.7242 17.7383 96.8497 18.2335 97.1042 18.6647C97.2589 18.8678 97.4634 19.0275 97.6979 19.1285C97.9324 19.2295 98.189 19.2683 98.4429 19.2413C98.6418 19.235 98.839 19.2021 99.0292 19.1435C99.2408 19.0752 99.4368 18.9656 99.6058 18.8211C99.7921 18.6572 99.939 18.4534 100.036 18.225C100.155 17.9134 100.211 17.5813 100.202 17.2478V16.2706H102.997L103.016 17.5116Z" fill="#E0E0E0"/>
<path d="M116.472 2.32568H119.159L122.756 12.7035H122.814L126.381 2.355H129.098V21.899H126.293V9.98692H126.244L123.469 18.3811H122.072L119.326 9.98692H119.267V21.8697H116.472V2.32568Z" fill="#E0E0E0"/>
<path d="M131.726 2.32597H135.928C136.618 2.31198 137.305 2.41439 137.961 2.6289C138.573 2.84908 139.12 3.21855 139.554 3.70382C140.026 4.21129 140.362 4.82977 140.531 5.50186C140.739 6.41493 140.831 7.35071 140.804 8.28688C140.813 9.02572 140.764 9.76409 140.658 10.4953C140.562 11.1035 140.343 11.6856 140.013 12.2054C139.642 12.8218 139.117 13.3305 138.488 13.681C137.702 14.0644 136.832 14.2458 135.958 14.2087H134.531V21.8406H131.726V2.32597ZM134.531 11.6094H135.879C136.33 11.6324 136.779 11.5452 137.189 11.3553C137.486 11.2107 137.73 10.9743 137.883 10.681C138.034 10.3765 138.121 10.0437 138.137 9.70382C138.137 9.30317 138.137 8.85366 138.137 8.36506C138.137 7.87646 138.137 7.46603 138.137 7.05561C138.125 6.68814 138.042 6.32646 137.892 5.99046C137.758 5.68829 137.532 5.43555 137.247 5.26734C136.855 5.078 136.422 4.99062 135.987 5.01326H134.531V11.6094Z" fill="#E0E0E0"/>
<path d="M29.316 15.8502L14.9218 0.29316L14.658 0L14.3941 0.29316L0 15.8502L4.1531 18.1661H9.85994V21.3322L14.3941 23.8436L14.658 24L14.9218 23.8436L29.316 15.8502ZM10.3974 21.0098V10.6319L9.4202 11.6091L4.00652 17.4723L0.859935 15.7134L14.3941 1.05537V23.2378L10.3974 21.0098Z" fill="#E0E0E0"/>
</svg>
